<?xml version="1.0" encoding="utf-8"?>
<!-- Generator: Adobe Illustrator 19.2.1, SVG Export Plug-In . SVG Version: 6.00 Build 0)  -->
<svg version="1.1" id="Layer_1" xmlns="http://www.w3.org/2000/svg" xmlns:xlink="http://www.w3.org/1999/xlink" x="0px" y="0px"
	 viewBox="0 0 412 412" style="enable-background:new 0 0 412 412;" xml:space="preserve">
<path id="facebook-circle-outline-icon" d="M206,42.8c43.6,0,84.6,17,115.4,47.8c30.8,30.8,47.8,71.8,47.8,115.4
	s-17,84.6-47.8,115.4c-30.8,30.8-71.8,47.8-115.4,47.8s-84.6-17-115.4-47.8C59.7,290.6,42.8,249.6,42.8,206s17-84.6,47.8-115.4
	C121.4,59.7,162.4,42.8,206,42.8 M206,3.4C94.1,3.4,3.4,94.1,3.4,206S94.1,408.6,206,408.6S408.6,317.9,408.6,206S317.9,3.4,206,3.4
	L206,3.4z M178.2,168.8H155v37.7h23.1v110.9h44.5V206h31l3.3-37.3h-34.3c0,0,0-13.9,0-21.2c0-8.8,1.8-12.3,10.3-12.3
	c6.8,0,24.1,0,24.1,0V96.6c0,0-25.4,0-30.8,0c-33.1,0-48,14.6-48,42.5C178.2,163.3,178.2,168.8,178.2,168.8z"/>
</svg>
